<svg width="36" height="36" viewBox="0 0 36 36" fill="none" xmlns="http://www.w3.org/2000/svg">
<path d="M35.8462 18C35.8462 19.6312 34.6728 20.8547 33.6368 21.9344C33.0478 22.55 32.4384 23.1844 32.2087 23.7422C31.9962 24.2531 31.9837 25.1 31.9712 25.9203C31.9478 27.4453 31.9228 29.1734 30.7212 30.375C29.5196 31.5765 27.7915 31.6015 26.2665 31.625C25.4462 31.6375 24.5993 31.65 24.0884 31.8625C23.5306 32.0922 22.8962 32.7015 22.2806 33.2906C21.2009 34.3265 19.9774 35.5 18.3462 35.5C16.7149 35.5 15.4915 34.3265 14.4118 33.2906C13.7962 32.7015 13.1618 32.0922 12.604 31.8625C12.0931 31.65 11.2462 31.6375 10.4259 31.625C8.90088 31.6015 7.17275 31.5765 5.97119 30.375C4.76963 29.1734 4.74463 27.4453 4.72119 25.9203C4.70869 25.1 4.69619 24.2531 4.48369 23.7422C4.254 23.1844 3.64463 22.55 3.05557 21.9344C2.01963 20.8547 0.846191 19.6312 0.846191 18C0.846191 16.3687 2.01963 15.1453 3.05557 14.0656C3.64463 13.45 4.254 12.8156 4.48369 12.2578C4.69619 11.7469 4.70869 10.9 4.72119 10.0797C4.74463 8.55467 4.76963 6.82655 5.97119 5.62498C7.17275 4.42342 8.90088 4.39842 10.4259 4.37498C11.2462 4.36248 12.0931 4.34998 12.604 4.13748C13.1618 3.9078 13.7962 3.29842 14.4118 2.70936C15.4915 1.67342 16.7149 0.499985 18.3462 0.499985C19.9774 0.499985 21.2009 1.67342 22.2806 2.70936C22.8962 3.29842 23.5306 3.9078 24.0884 4.13748C24.5993 4.34998 25.4462 4.36248 26.2665 4.37498C27.7915 4.39842 29.5196 4.42342 30.7212 5.62498C31.9228 6.82655 31.9478 8.55467 31.9712 10.0797C31.9837 10.9 31.9962 11.7469 32.2087 12.2578C32.4384 12.8156 33.0478 13.45 33.6368 14.0656C34.6728 15.1453 35.8462 16.3687 35.8462 18Z" fill="#006B23"/>
</svg>
