<svg width="8" height="16" viewBox="0 0 8 16" fill="none" xmlns="http://www.w3.org/2000/svg">
<g clip-path="url(#clip0_303_1821)">
<path d="M7.30499 7.42717L7.25579 7.98302L6.69044 8.00941C6.67231 8.00941 6.60412 8.00941 6.49019 8.00941C5.72631 8.00941 2.99706 7.87662 1.46758 6.06179C0.458565 4.86837 0.194444 3.22804 0.680392 1.19019L0.793463 0.715203L1.28804 0.698178C3.31469 0.629228 4.8718 1.14507 5.91792 2.2304C7.04087 3.39744 7.5061 5.14502 7.30499 7.42717Z" fill="#006B23"/>
<path d="M6.46762 13.9698C4.95367 15.7574 2.28743 15.8902 1.5365 15.8902C1.42602 15.8902 1.35697 15.8902 1.3397 15.886L0.773484 15.8621L0.725148 15.3054C0.525763 13.0071 0.993584 11.2519 2.11653 10.0874C3.1523 9.01652 4.6766 8.50833 6.6601 8.57813L7.15554 8.59516L7.26775 9.07185C7.75024 11.1233 7.48094 12.7722 6.46762 13.9698Z" fill="#006B23"/>
</g>
<defs>
<clipPath id="clip0_303_1821">
<rect width="7.05617" height="15.1979" fill="white" transform="translate(0.443848 0.692322)"/>
</clipPath>
</defs>
</svg>
