<svg width="8" height="16" viewBox="0 0 8 16" fill="none" xmlns="http://www.w3.org/2000/svg">
<g clip-path="url(#clip0_303_1827)">
<path d="M6.37813 8.01276C5.61425 8.01276 2.885 7.87996 1.35551 6.06514C0.346504 4.8683 0.0823834 3.22798 0.568331 1.19013L0.681403 0.715142L1.17598 0.698117C3.20263 0.629167 4.75974 1.14501 5.80586 2.23033C6.92795 3.39567 7.39404 5.14325 7.19293 7.42285L7.14373 7.97871L6.57837 8.0051C6.56025 8.0102 6.49033 8.01276 6.37813 8.01276ZM1.72753 1.96901C1.4824 3.36333 1.69041 4.46312 2.34726 5.2454C3.31139 6.39286 5.0394 6.66015 5.93879 6.71973C5.98971 5.11601 5.6341 3.90386 4.86677 3.11051C4.16676 2.38611 3.11459 2.00391 1.72753 1.97156V1.96901Z" fill="#006B23"/>
<path d="M6.35531 13.9698C4.84137 15.7574 2.17513 15.8902 1.42419 15.8902C1.31371 15.8902 1.24466 15.8902 1.2274 15.886L0.661179 15.8621L0.612843 15.3054C0.413458 13.0071 0.88128 11.2519 2.00422 10.0874C3.03999 9.01652 4.5643 8.50833 6.54779 8.57813L7.04324 8.59516L7.15544 9.07185C7.63794 11.1233 7.36864 12.7722 6.35531 13.9698Z" fill="#006B23"/>
</g>
<defs>
<clipPath id="clip0_303_1827">
<rect width="7.05617" height="15.1979" fill="white" transform="translate(0.331543 0.692322)"/>
</clipPath>
</defs>
</svg>
