<svg width="8" height="16" viewBox="0 0 8 16" fill="none" xmlns="http://www.w3.org/2000/svg">
<g clip-path="url(#clip0_303_1818)">
<path d="M6.32161 8.01371C5.55687 8.01371 2.82762 7.88092 1.29814 6.06609C0.289989 4.86926 0.0250049 3.22893 0.513542 1.19023L0.626613 0.715245L1.11774 0.699071C3.14439 0.630121 4.7015 1.14512 5.74762 2.23129C6.86971 3.39663 7.3358 5.14506 7.13383 7.42381L7.08463 7.98051L6.51927 8.00605C6.50373 8.01031 6.43382 8.01371 6.32161 8.01371ZM1.67015 1.96996C1.42588 3.36598 1.63562 4.46663 2.2942 5.24976C3.26351 6.40063 4.98547 6.66451 5.88227 6.72154C5.9332 5.11782 5.57327 3.90481 4.81025 3.11146C4.11284 2.38707 3.05808 2.00486 1.67015 1.97166V1.96996Z" fill="#006B23"/>
<path d="M1.36804 15.8902C1.25756 15.8902 1.18851 15.8902 1.17125 15.8902L0.605027 15.8579L0.556691 15.3012C0.357306 13.0028 0.825127 11.2476 1.94807 10.0831C2.98384 9.01227 4.50815 8.50493 6.49078 8.57303L6.98708 8.59006L7.09929 9.06675C7.58179 11.1208 7.31249 12.7696 6.29916 13.9673C4.78521 15.7591 2.11811 15.8902 1.36804 15.8902ZM5.94268 9.84648C4.59791 9.88053 3.5725 10.2551 2.89062 10.9624C2.12588 11.7558 1.76854 12.9756 1.81515 14.5938C2.69555 14.5334 4.36659 14.2669 5.31259 13.1467C5.9703 12.3678 6.18091 11.2553 5.93837 9.84903L5.94268 9.84648Z" fill="#006B23"/>
</g>
<defs>
<clipPath id="clip0_303_1818">
<rect width="7.05617" height="15.1979" fill="white" transform="translate(0.275391 0.692322)"/>
</clipPath>
</defs>
</svg>
